# xmcd
#
# Track frame offsets:
#	150
#	21712
#	40810
#	61730
#	80952
#	101025
#	122000
#	150102
#	176530
#	197222
#	215552
#	243720
#	262605
#
# Disc length: 3836 seconds
#
# Revision: 1
# Processed by: cddbd v1.5.1PL0 Copyright (c) Steve Scherf et al.
# Submitted via: CDex 1.50Beta5
#
DISCID=b10efa0d
DTITLE=BUCK-TICK - 狂った太陽
DYEAR=2002
DGENRE=Rock
TTITLE0=スピード
TTITLE1=MACHINE
TTITLE2=MY FUNNY VALENTINE
TTITLE3=変身(REBORN)
TTITLE4=エンジェル フィッシュ
TTITLE5=JUPITER
TTITLE6=さくら
TTITLE7=Brain,Whisper,Head,Hate is noise
TTITLE8=MAD
TTITLE9=地下室のメロディー
TTITLE10=太陽ニ殺サレタ
TTITLE11=ナルシス(single)
TTITLE12=ANGELIC CONVERSATION(single version)
EXTD=
EXTT0=
EXTT1=
EXTT2=
EXTT3=
EXTT4=
EXTT5=
EXTT6=
EXTT7=
EXTT8=
EXTT9=
EXTT10=
EXTT11=
EXTT12=
PLAYORDER=
